<svg width="15" height="15" viewBox="0 0 15 15" fill="none" xmlns="http://www.w3.org/2000/svg">
<path d="M5.21735 11V7.24427H5.1939L3.98443 8.05505V7.00304L5.214 6.16546H6.44023V11H5.21735ZM9.45846 11.0871C8.17193 11.0871 7.3846 10.1256 7.3846 8.5844V8.5777C7.3846 7.03655 8.17193 6.07835 9.45846 6.07835C10.745 6.07835 11.529 7.03655 11.529 8.5777V8.5844C11.529 10.1256 10.745 11.0871 9.45846 11.0871ZM9.45846 10.1256C9.99117 10.1256 10.286 9.56605 10.286 8.5844V8.5777C10.286 7.59605 9.99117 7.0399 9.45846 7.0399C8.92576 7.0399 8.62758 7.59605 8.62758 8.5777V8.5844C8.62758 9.56605 8.92576 10.1256 9.45846 10.1256Z" fill="white"/>
<path d="M4.15259 5.5V3.05602H3.30529V2.42799H5.77908V3.05602H4.93177V5.5H4.15259ZM7.36162 5.55535C6.42916 5.55535 5.84584 4.94435 5.84584 3.96506V3.9608C5.84584 2.98363 6.43342 2.37264 7.36162 2.37264C8.29621 2.37264 8.87953 2.98363 8.87953 3.9608V3.96506C8.87953 4.94435 8.29834 5.55535 7.36162 5.55535ZM7.36162 4.90816C7.80869 4.90816 8.08545 4.54199 8.08545 3.96506V3.9608C8.08545 3.37961 7.8023 3.01982 7.36162 3.01982C6.9252 3.01982 6.64205 3.37748 6.64205 3.9608V3.96506C6.64205 4.54838 6.92307 4.90816 7.36162 4.90816ZM9.24008 5.5V2.42799H10.5494C11.2349 2.42799 11.6777 2.85803 11.6777 3.51586V3.52012C11.6777 4.17795 11.2349 4.59947 10.5494 4.59947H10.0214V5.5H9.24008ZM10.362 3.02621H10.0214V4.01189H10.362C10.692 4.01189 10.8879 3.83945 10.8879 3.52012V3.51586C10.8879 3.19652 10.692 3.02621 10.362 3.02621Z" fill="white"/>
<rect x="0.5" y="0.5" width="14" height="14" stroke="white"/>
</svg>
